<?xml version="1.0" encoding="UTF-8" standalone="no"?>
<!-- Created with Inkscape (http://www.inkscape.org/) -->

<svg
   width="210mm"
   height="297mm"
   viewBox="0 0 210 297"
   version="1.1"
   id="svg312"
   sodipodi:docname="bird-left.svg"
   inkscape:version="1.1 (c68e22c387, 2021-05-23)"
   xmlns:inkscape="http://www.inkscape.org/namespaces/inkscape"
   xmlns:sodipodi="http://sodipodi.sourceforge.net/DTD/sodipodi-0.dtd"
   xmlns="http://www.w3.org/2000/svg"
   xmlns:svg="http://www.w3.org/2000/svg">
  <sodipodi:namedview
     id="namedview314"
     pagecolor="#505050"
     bordercolor="#eeeeee"
     borderopacity="1"
     inkscape:pageshadow="0"
     inkscape:pageopacity="0"
     inkscape:pagecheckerboard="0"
     inkscape:document-units="mm"
     showgrid="false"
     inkscape:zoom="0.091757856"
     inkscape:cx="746.53008"
     inkscape:cy="523.11597"
     inkscape:window-width="1600"
     inkscape:window-height="996"
     inkscape:window-x="-8"
     inkscape:window-y="-8"
     inkscape:window-maximized="1"
     inkscape:current-layer="layer1" />
  <defs
     id="defs309" />
  <g
     inkscape:label="Layer 1"
     inkscape:groupmode="layer"
     id="layer1">
    <path
       class="b"
       d="m -958.71179,101.93193 c 4.78193,0.81815 9.47922,2.03126 14.31758,2.56729 13.56996,1.52344 27.05528,-2.38391 40.62523,-3.96379 13.55585,-1.579859 29.39686,0 37.46547,9.30996 -19.12771,-4.10485 -39.55315,-3.79452 -58.48339,0.88867 -8.46359,2.08769 -17.63247,5.02173 -25.75752,2.13001 -2.66603,-0.94511 -4.97941,-2.46855 -7.57492,-3.55471 -5.2051,-2.15822 -11.18604,-2.44034 -16.9836,-2.68014 -8.18147,-0.32442 -16.82844,-0.0421 -24.89706,-1.08616 3.56881,-3.45597 14.72665,-4.09074 19.90354,-4.52802 7.37743,-0.62066 14.20473,0.87457 21.41289,0.87457 z"
       id="path34"
       style="fill:#04505b;stroke-width:1.4106" />
    <path
       class="b"
       d="m -845.66645,135.88504 c 2.39801,0.40892 4.7396,1.01564 7.15173,1.28364 6.78498,0.7617 13.52764,-1.1849 20.31262,-1.97485 6.78499,-0.7899 14.69843,0 18.73274,4.655 -9.56386,-2.04539 -19.77659,-1.89019 -29.2417,0.45157 -4.2318,1.04389 -8.81623,2.51087 -12.87877,1.07209 -1.32595,-0.47982 -2.49674,-1.24136 -3.78039,-1.77739 -2.59551,-1.08616 -5.58597,-1.2131 -8.4918,-1.34004 -4.09074,-0.16954 -8.42127,-0.016 -12.45559,-0.55015 1.79147,-1.72092 7.36332,-2.04539 9.94472,-2.25693 3.68166,-0.3103 7.0953,0.43717 10.70644,0.43717 z"
       id="path38"
       style="fill:#04505b;stroke-width:1.4106" />
    <path
       class="b"
       d="m 1041.1377,251.92488 c 4.7643,0.81517 9.4446,2.02385 14.2652,2.55791 13.5204,1.51788 26.9564,-2.37518 40.4769,-3.94931 13.5061,-1.57409 29.2894,0 37.3285,9.27595 -19.0576,-4.08981 -39.4087,-3.78066 -58.2697,0.88544 -8.4327,2.08005 -17.5682,5.00342 -25.6636,2.12223 -2.6565,-0.94165 -4.9613,-2.45953 -7.5471,-3.54173 -5.1861,-2.15032 -11.1455,-2.43143 -16.9217,-2.67036 -8.1517,-0.3235 -16.7671,-0.0425 -24.8062,-1.0822 3.5558,-3.4433 14.6731,-4.07579 19.831,-4.51147 7.3507,-0.61836 14.1526,0.87137 21.3349,0.87137 z"
       id="path408"
       style="fill:#04505b;stroke-width:1.40545" />
  </g>
</svg>
