<?xml version="1.0" encoding="UTF-8"?><svg id="a" xmlns="http://www.w3.org/2000/svg" viewBox="0 0 1920 1080"><defs><style>.b{fill:#020202;}</style></defs><path class="b" d="M14.69,1072.52v-156.53c1.26,0,2.33,.74,2.62,1.96s.02,2.51-.26,3.73l3.54,.83c0,1.53-1.29,2.7-2.16,3.96s-1.16,3.37,.22,4.03c-1.17,.7-1.72,2.27-1.26,3.55l2.13,.45-.38,2.96,2.32,.79v6.44c.01,.4,0,.85-.29,1.14-.32,.32-.82,.3-1.25,.42-1.12,.32-1.67,1.86-1.01,2.81,1.39-.16,2.62,1.11,2.93,2.48s-.06,2.79-.44,4.14l-1.62,.58c-.69,1.94,.76,4.33,2.8,4.62,.04-1.49,1.25-2.87,2.72-3.09,2.04,1.67-.33,4.99,.27,7.56,.27,1.18,1.18,2.13,1.52,3.29,.59,2.02-.2,5,1.79,5.69,.67,.23,1.42,.04,2.11,.21,2.41,.61,1.82,4.42,3.51,6.24,.46,.49,1.08,.81,1.68,1.12l4.3,2.21c1.43-3.16,.95-7.1-1.2-9.83-1.31,1.06-3.09,1.49-4.74,1.14,.63-1.07,1.26-2.44,.56-3.47-.85-1.23-3.37-1.74-2.72-3.08,2.9,.57,5.88,.67,8.81,.32,.79-2.24-1.22-4.97-3.6-4.87,1.02-1.99,1.74-4.12,2.13-6.32-1.22,.86-2.77-.88-2.67-2.37s1-2.85,.99-4.34c0-1.63-1.07-3.02-1.74-4.51s-.78-3.56,.6-4.42c1.14-.71,2.6-.18,3.9,.17s3.04,.29,3.55-.95c-1.54-.96-2.46-2.85-2.25-4.65-2.89,.19-4.36-3.34-4.97-6.17,2.42-.63,5.16,.16,6.87,1.99l2.6-7.17c-2.71,.24-4.93-3.23-3.58-5.6,.36-.63,.91-1.16,1.13-1.85,.69-2.14-1.98-4-2.02-6.24-.02-1.43,.72-3.46-.65-3.87,.92-1.02,2.04-1.85,3.27-2.44l.02-3.48c-1.39,.19-2.27-1.76-1.61-3s2.15-1.76,3.54-1.97c.94-.15,1.93-.21,2.77-.66s1.48-1.46,1.16-2.35c-2.23,.63-4.63-1.96-3.83-4.13,.89,1.25,2.25,2.16,3.75,2.5,1.5-1.82,3.03-4.51,1.49-6.3-.46-.54-1.14-.87-1.59-1.42s-.53-1.54,.11-1.86c.35-.18,.82-.1,1.09-.37,.21-.21,.22-.55,.2-.86-.32-4.8-3.33-9.82-1.12-14.09,1.11-2.14,3.29-3.47,4.99-5.18s2.98-4.4,1.75-6.48c-2.75-4.63-.42-11.05,1.25-16.17,.25,3.36,2.06,6.58,4.81,8.53-.11-2.67,.16-5.35,.8-7.95,1.66-.43,3.29,1.14,3.62,2.83s-.24,3.4-.71,5.05-.82,3.48-.12,5.04c.85,1.88,2.95,2.79,4.71,3.87s3.51,2.96,2.95,4.95c-1.03-1.13-2.9,.24-3.4,1.68s-.75,3.27-2.16,3.88c-.58,.25-1.27,.22-1.82,.54-1.28,.74-.87,2.89,.4,3.64s2.88,.5,4.29,.1v3.08c-.88-.9-2.62,.16-2.57,1.42s1.28,2.21,2.53,2.44,2.52-.05,3.78-.18,2.64-.07,3.63,.71c.5,2.2,.91,4.77-.55,6.49-.39,.46-.92,.85-1.14,1.41-.43,1.1,.45,2.28,.45,3.47,0,2.02-2.34,3.09-4.28,3.65v5c1.14,.06,2.27,.05,3.4,0,.82-.12,1.24,1.12,.76,1.79s-1.38,.87-2.19,1.03-1.71,.4-2.13,1.11c-.22,.36-.27,.79-.33,1.21l-.6,4.68c-.28,2.2,.05,5.25,2.26,5.49,.72,.08,1.42-.22,2.1-.45,2.64-.92,5.55-1.06,8.27-.4l-4.13,6.35,6.11-.04c.88,0,2.08,.29,2.03,1.17-.02,.33-.23,.61-.44,.87-2.14,2.66-4.63,5.04-7.38,7.05-.55,.4-1.12,.8-1.53,1.34-.74,.98-.82,2.41-.19,3.47,1.15-.24,2.35-.48,3.47-.14s2.09,1.48,1.82,2.62c-1.82-.03-3.3,1.63-3.7,3.4s.02,3.61,.44,5.38c.23,.99,.75,2.2,1.76,2.16,.53-.02,.97-.41,1.38-.75,1.87-1.55,4.25-2.48,6.67-2.62,.23,1.47-.95,2.73-1.86,3.9-1.65,2.11-2.66,4.71-2.86,7.38-.21,2.78,1.23,6.29,4.02,6.22,1.05-.03,2.04-.59,3.09-.62s2.27,.97,1.8,1.91c-.25,.51-.86,.72-1.38,.94-2.23,.98-3.78,3.33-3.8,5.76,0,.97,1.01,1.74,1.96,1.95s2,.18,2.79,.75c.72,.53,1.03,1.44,1.43,2.24,2.07,4.18,7.87,6,11.96,3.75,.37-.2,.73-.44,.95-.8,.61-1.03-.44-2.38-1.61-2.62s-2.36,.23-3.53,.51-2.56,.3-3.38-.58c-.83-.89-.63-2.44,.25-3.28s2.25-1.02,3.42-.69c-.94-3.07-1.73-6.18-2.39-9.33l-2.57-.05c-.19-1.44-.37-2.92-.03-4.34s1.35-2.76,2.76-3.08c.72-.16,1.48-.05,2.21-.17,1.1-.18,2.09-.92,2.59-1.92-.71-.4-1.45-.83-1.89-1.53s-.43-1.73,.22-2.22c.3-.23,.7-.31,.98-.57,.33-.31,.4-.8,.46-1.25,.24-1.99,.47-4.04-.04-5.97s-1.97-3.76-3.94-4.1c-.84-.14-1.71-.02-2.54-.19-2.36-.48-3.58-3.03-4.46-5.27,2.2,.02,4.47,.03,6.51-.8s3.81-2.71,3.82-4.91c0-.39-.05-.8,.08-1.17,.34-.92,1.54-1.05,2.5-1.27s2.01-1.22,1.44-2.01c-1.68-.19-3.32-.74-4.77-1.6-.32-.19-.64-.4-.85-.71-.83-1.22,.52-2.74,1.77-3.51,1.29-.8,2.67-1.52,3.64-2.7s1.39-2.95,.54-4.21c-1.34-1.98-5.05-1.75-5.62-4.07-.31-1.24,.33-3.05-.87-3.51,1.62,.39,3.32,.77,4.95,.41s3.18-1.7,3.19-3.37c.96,.07,1.93,0,2.87-.23,.06-2.02,.34-4.02,.83-5.98,.11-.44,.27-.92,.67-1.13,.62-.32,1.38,.26,1.56,.93s0,1.38-.03,2.07c-.16,2.86,2.49,5.56,5.35,5.45-.94,1.9-2.12,3.69-3.49,5.32,1.49,.31,2.34,2.29,1.53,3.58,1.32,.75,2.92,1,4.41,.71l-2.88,2.15c1.3,.53,2.58,1.13,3.81,1.8l-4.82,4.11c1.75-.37,2.9,1.92,2.74,3.7s-.91,3.63-.23,5.29c.83,2.02,3.65,3.36,3.16,5.49-.21,.93-1.07,1.86-.6,2.7,.36,.64,1.24,.68,1.97,.82,1.73,.35,3.17,1.85,3.44,3.59s-.64,3.61-2.18,4.47c-.42,.23-.88,.4-1.25,.71-.41,.34-.66,.82-.91,1.29l-2.24,4.28,5.5,4.05c-.58,1.23-.23,2.83,.81,3.71,.48,.4,1.1,.7,1.33,1.28,.28,.7-.17,1.49-.76,1.97s-1.3,.76-1.88,1.25c-1.38,1.19-1.49,3.56-.23,4.87,1.66-.3,3.46,.27,4.64,1.48-.33-1.58-.63-3.35,.23-4.72,.29-.45,.68-.82,1.08-1.19l4.98-4.63-6.33-4.69c-.5-.37-1.01-.76-1.25-1.33-.2-.49-.17-1.03-.13-1.56,.21-2.69,.52-5.39,.25-8.07s-1.18-5.4-3.08-7.31c-.87-.88-1.95-1.59-2.54-2.68-.42-.77-.55-1.67-.74-2.53-.49-2.2-1.43-4.28-2.36-6.34,3.66-.42,7.39-.83,10.99-.06,1.15,.25,2.29,.61,3.47,.65,2.16,.07,4.21-.96,5.98-2.22-3.9-1.73-7.37-4.4-10.05-7.72-.8-.99-1.56-2.16-1.4-3.42,.1-.77,.54-1.46,.63-2.23s-.42-1.73-1.18-1.63c7.84,1,16.33-2.57,23.11-6.63-12.29-3.41-21.95-14.78-23.34-27.46l11.55,2.08c2.37,.43,4.93,.83,7.07-.27s3.25-4.36,1.44-5.94c-3.88,.21-7.81-.6-11.3-2.32,1.33-.88,2.47-2.3,2.43-3.9s-1.7-3.12-3.2-2.57c2.4-5.76-7.12-11.75-4.37-17.36,4.69,2.71,10.92,2.49,15.41-.53-2.07-.92-3.68-2.81-4.26-5-.2-.75-.3-1.59-.85-2.15-.73-.76-1.93-.7-2.96-.92-2.53-.52-4.43-3.16-4.12-5.73,6.15,.32,12.25,1.43,18.12,3.29-.17-3.93-3.28-7.54-7.14-8.29,2.19,1.19,5.15-1.5,4.35-3.86s-4.48-2.89-6.08-.98c.61-4.43-.52-9.08-3.08-12.74,3.02,3.51,7.08,6.13,11.53,7.44-1.13-9.63-4.37-19.02-9.43-27.29,1.07-2.22,3.92-3.09,6.38-3.2,5.33-.26,10.69,.18,15.92,1.29,3.59,.76,7.55,1.79,10.74-.02,.81-2.68-.69-5.63-2.9-7.36s-5-2.49-7.7-3.21c-.32-.92,.93-1.57,1.9-1.62s2.21-.11,2.52-1.03c.23-.69-.26-1.39-.72-1.94-1.51-1.82-3.12-3.71-5.34-4.53-1.79-.67-4.36-1.16-4.34-3.06l6.24-2.03c-3.89,.75-8.09-2.29-8.6-6.22l2.95-.49c-1.34-2.63-3.13-5.03-5.27-7.06,2.84-2.51,7.35-.53,10.16,2.02s5.65,5.82,9.44,5.81c.84-4.62-1.28-9.64-5.19-12.26,4.31-.9,8.89-.47,12.96,1.23,.78-1.81,1.29-4.54,1.24-6.5-1.52-1.01-3.45-1.38-5.24-1.01-.89,.18-1.75,.54-2.65,.51s-1.89-.62-1.95-1.52c-.08-1.27,1.58-1.87,2.84-1.74s2.66,.56,3.71-.16c1.69-1.16,.64-3.91-.97-5.19s-3.76-2.21-4.36-4.17c1.18-.96,2.55-1.69,4-2.14-2.32-.38-4.6-1.04-6.77-1.94,2.3-1.21,4.84-1.94,7.43-2.13,.94-1.11-.27-2.82-1.64-3.32s-2.96-.48-4.09-1.39c-2.41-1.95-.84-6.45-3.18-8.49,1.43-.24,2.91-.2,4.33,.13,.49-2.83-1.21-5.89-3.87-6.97-1.11-.45-2.66-1.06-2.39-2.23,1.42-.85,3.11-1.24,4.75-1.09,2.24,3.16,5.83,5.32,9.67,5.8,1.03,.13,2.14,.13,3.02-.41,1.29-.79,1.72-2.55,1.39-4.03s-1.24-2.76-2.13-3.98c-.47-.64-.96-1.31-1.68-1.64-1.07-.49-2.51-.19-3.3-1.05-.89-.96-.13-2.66,1.08-3.16s2.58-.18,3.85,.14c1.44-4.75-2.97-8.99-7.13-11.7,4.15-.78,7.8-3.85,9.28-7.81,1.01,3.18,3.66,5.8,6.86,6.75,.18-5.55-2.32-11.12-6.59-14.67,2.94-.07,5.9,.81,8.33,2.48l.14-13.27,5.86,1.49c.51-1.94,1.51-3.74,2.89-5.19l.54,22.79c3.6-2.09,6.14-5.91,6.68-10.04,2.34,2.97,1.07,7.38-.93,10.59s-4.7,6.25-5.08,10.01c1.15-.54,2.46-.74,3.72-.55l-3.53,3.47c1.87,2.4,1.57,6.22-.66,8.29,1.23,1.18,3.35,.76,4.68-.31s2.16-2.63,3.28-3.92c1.75-2.04,4.24-3.44,6.9-3.87,2.15,1.7,.82,5.16-.84,7.34s-3.59,5.08-2.11,7.39c1.71-.3,3.52,.02,5.03,.87-2.43,1.13-3.84,4.08-3.2,6.68l3.86,1.14c.81-4.61,5.22-8.31,9.9-8.32-3.6,4.74-3.09,11.4-1.54,17.14,.88,3.24,1.76,7.37-.91,9.4-1.97,1.5-5.82,2.39-4.81,4.65,1.8-.19,3.66,.25,5.18,1.22l.42,5.38c3.26,.8,6.88-2.05,6.87-5.41,2.26,.74,2.84,3.77,2.21,6.07s-2.04,4.37-2.32,6.73,1.35,5.26,3.72,4.95c-2.4,3.01-4.5,8.1-1.17,10.03-1.08,1.5-2.2,3.11-2.32,4.96s1.21,3.92,3.06,3.87c1.19-.04,2.17-.88,3.05-1.69l8.83-8.1c.09,6.73-2.09,13.47-6.1,18.88,3.79-.26,7.63,.34,11.15,1.75-2.7,3.42-6.26,6.16-10.26,7.89,3.17,.78,6.48,.95,9.72,.52-1.93,6.45-5.16,12.51-9.45,17.71l-3.65,.84c1.32,3.81,6.99,1.81,11,2.26,1.12,.13,2.2,.51,3.2,1.04,6.47,3.43,8.13,12.41,5.72,19.33-.67,1.93-1.39,4.53,.34,5.63-4.2,2.75-7.7,6.56-10.09,10.97-.47,4.59,2.72,9.29,7.17,10.55l5.22-4.08,1.05,7.51c.47,3.39,.94,6.93-.19,10.16s-4.38,6-7.74,5.37c-1.44,2.74-.66,6.46,1.77,8.38s6.23,1.83,8.56-.21c2.46-2.15,3.01-5.73,3.1-9,.21-7.83-1.36-15.7-4.55-22.85,2.35,1.14,5.14-1.19,5.62-3.76s-.51-5.14-1.17-7.66-.91-5.48,.76-7.48c2.9-1.76,6.45,.5,9.45,2.09s7.95,1.63,8.52-1.71c-2.85-2.38-5.86-5.02-6.7-8.64-.62-2.68,.05-5.54-.61-8.21-1.47-5.87-9.1-10.46-6.85-16.07,6.89,5.5,17.51,5.67,24.57,.39-8.63-1.97-16.2-8.16-19.84-16.23,7.26,1.49,14.95,.8,21.83-1.95-3.16-.56-5.21-3.9-5.39-7.11s1.07-6.29,2.29-9.26c-2.66,1.07-5.93,2.07-8.17,.29-4.03-3.2-.26-11.7-4.93-13.88,3.75-.41,6.61,3.05,9.64,5.31s8.74,2.42,9.27-1.32c.46-3.24-3.6-5.02-6.8-5.68,2.14-5.07,2.04-11.03-.26-16.02-1.8,1.28-4.26-.75-4.85-2.87s-.3-4.52-1.41-6.43c-.7-1.21-1.97-2.38-1.6-3.73,.46-1.66,2.89-1.66,4.42-.85s3.04,2.09,4.74,1.77c1.82-.34,3.11-2.45,4.95-2.28,.99,.09,1.78,.84,2.53,1.49,5.55,4.8,13.91,6.07,20.64,3.14,.88-.38,1.8-.92,2.08-1.83,.25-.83-.11-1.71-.46-2.5-2.29-5.11-5.67-11.01-11.27-11.24,2.33-1.4,3.59-4.37,2.98-7.02s-3.03-4.78-5.74-5.03c-1.26-.12-2.82,0-3.46-1.09-1.71-2.87,6.11-3.38,5.93-6.71-.12-2.27-3.42-2.19-5.69-2.34-1.65-.11-3.37-.86-4.12-2.33s-.04-3.65,1.58-3.98c-1.4-2.01-2.38-4.31-2.85-6.71,2.48-1.74,5.48,1.14,7.6,3.3,3.6,3.68,8.58,5.97,13.72,6.3-2.3-4.83-2.97-10.42-1.89-15.66,3.51,2.46,9.06,1.1,11.04-2.7,.97-1.74-2.03-2.7-3.83-3.56-2.8-1.34-3.48-5.29-2.2-8.11,1.28-2.83,3.95-4.75,6.57-6.41-4.26,.28-8.24-4.12-8.18-8.39,1.33-1.52,3.7-1.25,5.68-1.65s3.9-2.97,2.32-4.22c-1.92-1.53-4.27,2.19-6.71,1.86-.72-.1-1.34-.55-1.88-1.05-4.14-3.81-4.86-9.98-5.32-15.58,2.56,.3,5.08,.96,7.47,1.93-.48-3.82-1.5-8.36-5.12-9.69-1.39-.51-2.94-.42-4.32-.93s-2.61-2.1-1.92-3.41c4.35-.82,9.89-1.15,12.13,2.67,.5,.85,.77,1.84,1.33,2.65,.83,1.19,2.23,1.88,3.66,2.17,3.34,.69,7.11-.79,8.82-3.74s.93-7.19-1.89-9.11c-1.68,.31-3.45,.62-5.04,0s-2.8-2.53-2.05-4.05c1.68-.49,3.44-.68,5.18-.55l1.45-10.06c.09-.65,.16-1.4-.28-1.89-.57-.64-1.58-.46-2.42-.64-2.15-.47-2.72-3.63-1.36-5.36s3.81-2.18,6-2.02c.71-1.77,3.09-3.01,4.54-1.77-.53,1.91-1.04,4.04-.12,5.79s3.96,2.28,4.73,.45c.36-.85,.09-1.82-.2-2.7-1.08-3.35-2.29-6.65-3.63-9.9-.76-1.85-1.86-3.92-3.83-4.27,3.98-.7,8.25,.42,11.38,2.98l-.28-13.27c-.03-1.49,0-3.14,.99-4.25,.72-.8,1.79-1.14,2.77-1.58,2.69-1.22,4.9-3.44,6.11-6.13,1.56,1.41,1.57,3.89,.91,5.89s-1.85,3.81-2.32,5.86c-1.23,5.33,2.57,10.69,1.98,16.13,1.28,1.52,3.51-.6,4.29-2.43,1.7-3.98,3.41-7.97,5.11-11.95,1.45-.46,3.02,.73,3.51,2.17s.19,3.02-.18,4.5c-1.27,5.05-3.31,9.9-6.03,14.34-.63,1.03-1.33,2.17-1.12,3.36,.17,.99,.93,1.76,1.53,2.57,1.62,2.15,1.81,6-.73,6.88-.92,.32-1.95,.13-2.89,.39s-1.81,1.37-1.24,2.16l2.97,.46c-.82,2.81-1.82,5.56-2.97,8.25,3.2,.03,5.07-3.44,7.29-5.75,3.54-3.67,8.91-4.76,13.93-5.66,.09,4.98-2.73,9.91-7.07,12.36-.33,2.63-.13,5.33,.58,7.89,1.83-.39,3.59-1.09,5.19-2.06,.63,2.39-1.3,5.12-3.77,5.31-.65,2.82,3.16,4.93,5.9,3.99s4.47-3.55,6.2-5.87,4.05-4.66,6.95-4.64l-4.43,11.75c-.64,1.69-1.28,3.41-1.39,5.2-.37,5.92,4.96,11.66,2.97,17.24-.88,2.47-3.02,4.22-4.62,6.3s-2.63,5.11-1.09,7.23c1.91,2.63,6.07,1.76,8.86,.1s5.73-3.94,8.91-3.29c1.49,4.99,.04,10.74-3.63,14.43-2.21,1.88-1.25,6.16,1.55,6.92,.77,.21,1.65,.22,2.23,.77,.56,.54,.62,1.4,.64,2.17l.22,8.23-3.26,1.36c-.63,1.4,.45,3.27,1.98,3.43-.38,2.21-3.58,2.93-4.15,5.09-.45,1.72,1.17,3.45,2.93,3.74s3.52-.46,5.09-1.3c4.63-2.49,8.69-6.03,11.79-10.26,1.27,2.86,.11,6.18-1.21,9.02-2.08,4.47-4.57,8.76-7.44,12.77,5.82,.32,11.57,1.91,16.73,4.63-2.94,1.4-4.23,4.91-4.56,8.15s.02,6.58-.9,9.71c-1.86,6.26-8.18,9.94-14.08,12.74,.69,1.87,3.13,1.88,5.12,2.03s4.08-.07,5.88,.77c2.3,1.07,3.51,3.55,4.96,5.63s3.84,4.06,6.27,3.34c1.19-.36,2.63-1.28,3.49-.37,.6,.63,.32,1.64,.16,2.49-.74,3.89,2.46,8.05,6.41,8.34-3.12,.25-5.57,3.68-4.78,6.71-1.91-.25-3.92,.83-4.76,2.57s-.45,3.99,.94,5.33c.58,.57,1.33,.99,1.76,1.68,1.18,1.89-.76,4.37-2.91,4.97s-4.47,.14-6.64,.61c.72,2.61,2.86,4.79,5.46,5.55-2.71,1.82-6.22,2.41-9.38,1.58-.92,1.4-.35,3.34,.69,4.64s2.49,2.23,3.63,3.46c1.38,1.48,2.29,3.38,3.83,4.7s4.14,1.81,5.45,.27c.72-.84,.83-2.02,1.21-3.06,.94-2.6,3.81-4.34,6.55-3.98s5.06,2.79,5.29,5.54c.11,1.24-.14,2.59,.5,3.66,.76,1.26,2.65,1.92,2.63,3.39-.01,.84-.69,1.5-1.27,2.1-2.35,2.46-3.83,5.72-4.13,9.11-.24,2.67-.67,6.41-3.34,6.43l.43,4.21c-3.09,.46-6.23,.62-9.36,.47l-.13,3.42c-1.36,1.02-3.31,1.18-4.83,.41,1.98,2.65,4.81,5.63,8.01,4.79,3.2-.84,4.87-5.21,8.18-5.23,1.07,0,2.37,.41,3.07-.41,.4-.47,.38-1.16,.33-1.78-.3-3.5-.94-6.98-1.92-10.36,3.6-.73,7.29-.98,10.95-.75l-.81-6.41c-.07-.55-.13-1.14,.12-1.63,.5-.96,1.82-.99,2.9-1.1,4.04-.38,7.71-4.84,5.94-8.48-1.7,1.16-4.13-.54-4.58-2.55s.32-4.06,.82-6.06,.63-4.37-.79-5.86l2.62-1.6c-1.86-1.68-4.35-2.5-6.25-4.13s-3.02-4.77-1.28-6.57c.53-.55,1.27-.91,1.68-1.56,1.65-2.59-3.41-5.22-2.83-8.23,2.42-.95,5.3-.63,7.45,.84,.93,.63,1.77,1.48,2.86,1.73,1.68,.38,3.44-.94,3.89-2.6s-.22-3.48-1.37-4.77c-.6-.67-1.39-1.36-1.34-2.27,.09-1.46,2.16-1.86,2.92-3.11,.38-.64,.38-1.42,.37-2.17-.07-3.81-.71-8.49-4.28-9.85l6.46-.79c-.9,2.12,.51,4.89,2.76,5.41,1.65-4.48-1.63-9.13-4.72-12.77,2.62-1.15,5.96-.4,7.83,1.77,.3-4.52,.52-9.05,.66-13.58,1.76-.39,3.66-.11,5.23,.77l1.96-4.23c2.34,2.37,2.26,6.17,1.66,9.45-.6,3.27-1.56,6.7-.48,9.85,1.19,1.48,3.64-.31,3.9-2.19s-.43-3.91,.35-5.64c.92-2.03,3.96-2.67,5.62-1.18-.32,6.73-3.7,13.25-9.02,17.39l4.99,1.33c-2.68,2.71-1.44,7.22-.03,10.76,1.86-1.25,3.04-3.27,4.66-4.83s4.14-2.64,6.07-1.49c-2.55,2.17-4.8,4.9-5.55,8.17s.35,7.11,3.22,8.83c2.87,1.72,7.35,.36,8.14-2.89,1.58-1.1,3.05,1.56,3.17,3.49l.83,13.14c.11,1.7,.21,3.44-.24,5.09-.6,2.17-2.11,4.01-2.66,6.19s.55,5.12,2.8,5.16c.63,0,1.23-.22,1.82-.44l5.9-2.23c1.55,1.44,1.62,3.9,1.01,5.93s-1.78,3.84-2.4,5.86c-1.94,6.36,1.9,13.23,.74,19.78,3.32-3.64,8.6-5.39,13.44-4.44-2.48,2.57-4.41,5.95-4.22,9.51s3.09,7.09,6.66,7.02c.24,1.7-.56,4.28-2,5.21,2.12-.38,3.91,1.98,3.81,4.13s-1.44,4.01-2.73,5.74c-3.03,4.04-6.2,8.21-10.65,10.6,3.46,1.4,7.27,1.91,10.98,1.44-1.63,1.96,1.19,4.86,3.73,4.73s4.77-1.77,7.28-2.19c1.13,11.5-3.99,23.42-13.1,30.52-1.22,.95-2.62,2.01-2.76,3.55-.27,2.98,3.92,3.99,5.86,6.27,2.12,2.49,1.29,6.21,1.26,9.48-.06,7.44,4.64,13.98,9.13,19.91,1.8,2.38,3.65,4.8,6.14,6.44s5.78,2.38,8.48,1.12l-2.14-6.89-4.28-13.81c-.53-1.71-.8-4.07,.82-4.82,1.9-.1,3.83,.25,5.58,1.02-.07-3.59-.12-7.29,1.19-10.63s4.33-6.28,7.92-6.35c2.31,4.1-.57,10.66,3.39,13.21,4.02,2.6,9.16-2.95,13.78-1.72,1.6,2.78-1.92,5.63-4.82,6.99s-6.31,4.45-4.49,7.08c1.74-.22,3.56,.15,5.08,1.04-2.17,1.45-4.57,4.32-2.8,6.24,.58,.62,1.45,.88,2.09,1.45,2.1,1.88,.47,5.8,2.34,7.92,2.11,2.37,5.94,.19,8.24-1.99,2.58-2.45,5.31-6.43,3.02-9.16,1.51-2.89,7.31-2.68,7.09-5.93-.11-1.68-2.07-2.62-3.76-2.66s-3.41,.44-5.04,0c-.54-3.37,3.84-5.18,7.23-5.48,1.24-.11,2.55-.21,3.58-.9,1.8-1.21,2.08-3.89,1.21-5.88s-2.6-3.46-4.27-4.85c1.7-1.82,3.91-3.17,6.31-3.84,1.2-2.99,3.35-5.49,4.93-8.3,1.58-2.81,2.56-6.31,1.2-9.23-3.23,.36-5.16-4.87-2.47-6.7-.56-1.26-1.34-2.42-2.3-3.4,3.76-4.13,10.02-4.39,15.57-5.03,1.55-.18,3.59-1.14,3.1-2.62-.17-.53-.65-.9-1.1-1.23l-9.62-7.06,21.15-5.77c-1.33-.04-2.73-.1-3.87-.79s-1.87-2.24-1.21-3.4c.56-.98,1.82-1.27,2.75-1.93,1.72-1.21,2.18-3.62,1.82-5.7s-1.34-3.98-1.95-6c-.16-.52-.29-1.09-.13-1.61,.24-.82,1.08-1.27,1.8-1.72,2.36-1.48,4.13-3.87,4.87-6.56,.24,2.83,3.34,5.05,6.09,4.36l-.48,6.77c-1.33-.31-2.61,.94-2.84,2.28s.29,2.69,.87,3.92c1.46,3.12,3.34,6.05,5.55,8.69l.11-3.04c3.15,.73,7.02,2.27,7.09,5.5,4.65-3.17,11.19-3.28,15.94-.26-4.25,.39-8.29,2.61-10.89,5.99l-4.62,1.47c-.91,1.78,.42,4.04,2.24,4.86s3.92,.59,5.9,.35c-.06,3.46-.61,6.91-1.64,10.22,3.66,.36,7.38,0,10.9-1.04l-10.03,8.46c-1.79,1.51-4.05,3.11-6.26,2.35l.03,2.83c1.78,.79,3.6-.82,5.3-1.78s4.76-.35,4.32,1.55c-1.84,.28-3.79,.6-5.23,1.78s-2.11,3.53-.88,4.93c2.72-1.52,6.07,1.87,9.04,.91,.96-.31,1.73-1.05,2.66-1.45,1.57-.68,3.56-.23,4.69,1.06,3.4-3.71,8.28-6.03,13.31-6.31,1.3,1.22,.89,3.49-.3,4.83s-2.91,2.04-4.45,2.94c-3.56,2.08-6.36,5.41-7.8,9.27,2.11,.56,4.33,.72,6.49,.45,.22,3.53-7.12,2.25-8,5.67-.48,1.89,1.56,3.44,3.42,4.03,3.94,1.25,8.39,.83,12.02-1.13l-3.62-3.71c1.61-.57,3.37-.72,5.06-.45l1.71-6.26c.85-3.11,1.7-6.22,2.78-9.26,.86-2.43,2.45-5.23,5.04-5.19,1.8,.03,3.9,.67,4.85,2.2-2.48,.88-4.66,2.59-6.1,4.79,1.94,1.07,3.41,2.96,3.98,5.11,.26,1,.38,2.13,1.12,2.85,1.13,1.09,2.95,.64,4.5,.4,3.11-.47,6.39,.33,8.94,2.17-3.28,.98-7.39,3.77-5.75,6.77,.73,1.33,2.32,1.85,3.58,2.68s2.3,2.61,1.34,3.78c1.74-.3,3.58,.07,5.06,1.01-2.6,2.05-5.94,3.16-9.25,3.06v3.83c4.56-1.2,7.78,4.33,9.25,8.82,1.1-3.5,4.75-6.03,8.42-5.84-2.4,.06-2.2,4.15-.1,5.29s4.7,.6,7.06,.99c2.25,.37,4.26,1.59,6.39,2.38s4.71,1.1,6.56-.22,2.05-4.75-.06-5.61c-1.85,1.6-5.21,2.65-6.32,.47-1.95-3.82,7.64-6.14,5.97-10.09-1.48-3.51-9.21-.53-9.57-4.32-.1-1.03,.59-2.01,.55-3.05-.06-1.23-1.1-2.15-2.1-2.86-3.62-2.58-7.76-4.42-12.1-5.39,5.41-5.11,14.13-3.12,21.2-.8,3.36-3.43,2.16-9.07,.73-13.65-.59-1.89-1.21-3.84-2.55-5.3s-3.59-2.28-5.34-1.36c-.93-1.69,.98-3.75,2.9-3.88s3.7,.88,5.52,1.52c4.02,1.41,8.66,.96,12.33-1.21-1.26-1.27-2.63-2.45-4.07-3.51,2.2,.36,4.02-2.13,3.87-4.36s-1.61-4.13-3-5.87c-1.09-.51-2.04-1.3-2.74-2.28l5.29-3,2.42,4.1c2.01,.31,4.11,.09,6.02-.62-.17,2.9-.81,5.77-1.88,8.46,4.29,2.05,8.22,4.85,11.56,8.23l-6.14,1.79c3.5,1.36,7.27,2.04,11.02,1.99l-9.78,10.44c2.73,1.04,5.79,1.21,8.62,.47l-1.95,4.58c4.82-.36,9.76,1.52,13.11,5-1.78,.95-3.13,2.66-3.64,4.61,2.31-.28,4.07,2.09,4.73,4.32s.87,4.75,2.44,6.45c1.21,1.32,3.03,1.89,4.41,3.04,1.81,1.5,2.74,3.87,4.58,5.33,2.6,2.07,6.28,1.86,9.58,1.54l22.24-2.13c1.26-.54,1.98-2.11,1.57-3.42,4.35-.47,8.74-.56,13.11-.24,1.83,.13,3.76,.37,5.24,1.45,2.28,1.67,4.64,5.34,6.85,3.57-1.04-5.9,5.36-11.75,11.15-10.19,1.86,2.95-3.18,5.93-3.23,9.41-.03,2.08,1.85,3.78,3.87,4.28s4.13,.06,6.16-.38c.24,1.54-.66,3.18-2.08,3.81,2.44,2.46,1.87,7.18-1.1,8.98,5.03-1.14,10.57,.31,14.39,3.76-1.58,3.18-6.07,3.42-8.78,5.72-4.28,3.64-2.6,10.5-.55,15.74,6.04,.51,12.08,.97,18.13,1.36-.23-3.03-1.98-5.91-4.56-7.5,2.79,1.41,5.99-1.07,7.7-3.68s3.2-5.81,6.17-6.77c-2.4-1.73-4.53-3.83-6.29-6.21l6.04-1.96c-2.52-1.69-4.5-4.17-5.58-7.01,3.53,.89,7.48,.64,10.51-1.38s4.81-6.05,3.58-9.47l7.57,7.09c-2.05,3.42-.59,8.06,2.35,10.76,.87,.8,1.92,1.45,2.5,2.47,1.04,1.83,.24,4.13-.58,6.07,.68,1.14,2.58,.92,3.36-.16s.7-2.55,.32-3.83c-1.55-5.25-7.3-9.96-5.17-15.01,3.81,.38,7.52,1.69,10.72,3.79l.95-2.67,6.04,1.24c1.19-.9,.44-2.94-.85-3.69s-2.89-.76-4.27-1.33-2.61-2.19-1.86-3.49l4.9-.56c-1.37-2.77-3.98-4.89-6.97-5.65-.58-2.95,3.05-5.77,5.76-4.48,.75-2.59,2.55-4.85,4.9-6.17-2.39-.83-4.45-2.54-5.72-4.72l2.45-4.42c1.43,1.4,3.47,2.16,5.47,2.03,.38-.94,.45-1.99,.22-2.98,1.44,1.06,3.53,.57,5.01-.44s2.61-2.46,4.08-3.47c.54-.37,1.15-.72,1.41-1.31,.55-1.23-.68-2.45-1.37-3.61s.07-3.35,1.25-2.7c2.98,2.46,.95,8.11,3.94,10.55,.88,.72,2.11,1.04,2.73,2,.92,1.42-.04,3.31,.24,4.98,.32,1.89,2.24,3.17,4.14,3.4s3.79-.36,5.62-.95c1.67,3.64-7.98,4.98-6.39,8.66,2.7,1.35,5.91,.43,8.91,.07s6.75,.39,7.67,3.27c.81,2.53-1.08,5.03-2.58,7.22s-2.63,5.43-.71,7.27c.91,.86,2.41,1.3,2.65,2.53,.14,.72-.24,1.42-.47,2.12-.63,1.91-.06,4.17,1.42,5.54,1.44,1.34,3.56,1.82,4.88,3.29s.6,4.68-1.33,4.26c2.3-.36,4.77,.78,5.99,2.77-1.64,1.91-5.29-.05-7.1,1.69-1.79,1.72,.17,4.63,2.05,6.25l9.23,7.99c-.08-3.64,2.57-7.17,6.09-8.11-1.62-1.77-.48-4.56,.53-6.73s1.5-5.37-.65-6.44c4.48-1.84,8.33-5.18,10.79-9.36-.92,3.08,1.15,6.42,3.95,8.02s6.12,1.87,9.33,2.1l-4.56,4.44c1.12,6.4,1.7,12.89,1.74,19.39l10.71-6.5,1.56-5.29,3.84-.04c-.18,1.79,.12,3.64,.88,5.27,2.72-1.39,6.42-.36,8.04,2.22,.76,1.22,1.08,2.67,1.82,3.9s2.17,2.27,3.54,1.84c2.46-.78,1.54-4.59-.26-6.43s-4.26-4.06-3.34-6.48c4.33,.53,8.65-3.41,8.52-7.77-.03-1.08-.35-2.24-1.21-2.9-1.27-.97-3.05-.47-4.64-.46s-3.57-1.29-2.91-2.74c3.65-.27,6.13-4.98,4.29-8.14-.43-.74-1.07-1.52-.84-2.35,.48-1.75,3.74-.9,4.5-2.54,.44-.94-.4-2.08-1.4-2.35s-2.06,.05-3.05,.37c-.69-1.73,.69-3.72,2.43-4.39s3.68-.37,5.51-.07c-.61-3.08-2.12-5.97-4.3-8.23,1.91,.35,3.49,1.68,5.32,2.34s4.39,.31,4.98-1.55c.59-1.85-1.17-3.53-2.64-4.81s-2.89-3.45-1.7-4.98c.66-.85,1.91-1.08,2.54-1.96,1.24-1.74-.85-3.85-1.6-5.85-1.16-3.11,1.21-6.41,3.77-8.53s5.65-4.03,6.68-7.19c-2.98-4.91-2.88-11.51,.24-16.33,.31,3,2.04,5.82,4.58,7.45,.86,.55,1.85,1.02,2.33,1.93,.95,1.79-.15,4.97,1.83,5.39l1.58-17.62c-.3,3.72,5.07,6.09,4.73,9.81-.11,1.16-.77,2.18-1.31,3.21-1.68,3.23-2.2,7.05-1.44,10.61,2.52-1.06,5.25-1.62,7.98-1.62,1.52,3.04-2.05,7.1-5.25,5.99-2.03,2.16-.96,6.31,1.86,7.23l-.67,5.94c3.74,3.43,10.94-3.85,14.26-.02,1.75,2.01,.33,5.14-1.34,7.23s-3.7,4.53-2.93,7.09c-1.77-1.44-4.63,.8-4.41,3.08s2.31,3.92,4.43,4.79c-.2,3.2-5.98,1.95-7.79,4.59-1.9,2.77,2.27,6.98,.24,9.66,2.8-.29,5.24-1.94,7.8-3.12s5.71-1.87,8.07-.34c-1.45,1.01-2.95,2.08-3.74,3.66s-.57,3.81,.94,4.71c2.42,1.45,6.69-.93,7.82,1.65-.49,3.68-6.74,3.01-8.7,6.16-1.51,2.43,.19,6.16-1.83,8.18,1.91-.42,4.62-.37,5.01,1.55,.38,1.86-2.04,3.23-2.15,5.12-.08,1.41,1.24,2.59,2.63,2.86s2.81-.12,4.17-.51c5.28-1.52,11.16,.19,16.61,.93,.75,1.42-.33,3.24-1.81,3.87s-3.15,.4-4.74,.17l.39,3.63c1.59-.5,3.47,.26,4.27,1.72s.41,3.46-.87,4.52c2.96,.66,4.24,4.08,5.04,7l1.97,7.25c.57,2.09,2.33,4.75,4.22,3.69,1.76-.98,.78-3.64-.29-5.35-3.22-5.17-5.37-11-6.3-17.01-.09-.56-.16-1.15,0-1.7,.49-1.78,2.8-2.1,4.55-2.69,3.16-1.07,5.49-4.22,5.58-7.55s-2.05-6.61-5.14-7.86c-1.8-.73-3.82-.8-5.57-1.64s-3.2-2.94-2.31-4.67c3.16,.16,6.36-.29,9.35-1.33l-.2-4.34,8.13-3.66-3.96-1.69c-1.28-.54-2.69-1.23-3.12-2.55-.71-2.18,1.65-4.02,3.64-5.16s4.23-3.24,3.22-5.3c-2.36-1.53-5.73,.87-8.22-.42-1.38-.71-2.03-2.58-1.39-3.99s2.47-2.16,3.91-1.6c.99,.39,1.93,1.3,2.95,1,.63-.19,1.03-.79,1.46-1.29,2.35-2.74,7.13-3.66,7.65-7.23,.22-1.52-.49-3-.63-4.53s.79-3.43,2.31-3.29c.36,2.55,.59,5.12,.69,7.69,1.16-1.23,3.14,.7,3.1,2.4s-.86,3.49-.1,5c.64,1.28,2.44,1.8,3.67,1.08,.08,2.38-.35,4.78-1.24,6.99,2.98-1.39,6.96,1.51,6.53,4.77-2.33-.04-4.9,.56-6.24,2.47s-.45,5.24,1.87,5.48c-.08,2.07-.61,4.11-1.55,5.96,3.03,1.48,6.13,2.98,9.48,3.38s7.05-.52,9.16-3.15l-3.98-1.74c-1.86-.82-.61-5.82,1.38-6.23,1.25-.26,2.67,.41,3.76-.25,1.04-.63,1.14-2.05,1.43-3.23s1.41-2.48,2.5-1.94c-.39-2.08-1.47-4.02-3.04-5.44,1.17-1.09,2.71-1.78,4.3-1.95-.85,1.82,1.07,3.93,3.07,4.13s3.89-.8,5.71-1.65,3.94-1.55,5.79-.76c.73,1.54-.96,3.08-1.4,4.72-.94,3.53,4.03,7.16,2.19,10.32,4.56-2.44,7.33-7.85,6.64-12.97,3.11,.06,6.15-1.93,7.36-4.79,.21-.49,.36-1.06,.15-1.56-.39-.93-1.72-.96-2.46-1.65-.91-.85-.62-2.4,.11-3.41s1.78-1.76,2.44-2.81c1.37-2.21,.63-5.05,.16-7.61s-.34-5.75,1.92-7.05c.46,1.52,1.85,2.72,3.42,2.96l.12-7c2.01,.14,4.06-.51,5.61-1.8,1.47,5.39,2.74,10.83,3.81,16.31,1.08-.56,2.17,.77,2.53,1.94s.85,2.64,2.07,2.73c1.03,.08,1.77-.97,2.19-1.92,1.7-3.78,2.08-8.13,1.07-12.15-.23-.91-.53-1.82-.48-2.76,.08-1.41,.95-2.64,1.46-3.96,1.42-3.65-.24-8.23-3.67-10.12l3.89-2.58-4.82-.85c-1.61-1.73-.9-4.79,.99-6.21s4.5-1.48,6.8-.92c.13-3.46,.48-6.91,1.05-10.33,.16-.97,.37-1.99,1-2.73,1.53-1.79,4.85-1.31,6.05-3.34l-.08,13.86c-.01,1.76,0,3.62,.93,5.12s3.1,2.37,4.5,1.3c.86-.65,1.3-1.9,2.35-2.15,1.88-.44,2.48,2.45,2.13,4.35l-1.19,6.48c-.74,4.02-1.47,8.21-.37,12.16,.96,3.46,3.28,7.09,1.73,10.33,2.48,.79,4.74-2.11,4.81-4.71s-1.12-5.09-1.27-7.7,1.45-5.74,4.06-5.6c1.08,.05,2.04,.67,3.03,1.11,3.39,1.53,7.62,.99,10.53-1.34-3.79-2.49-8.18-4.07-12.69-4.58-1.05-1-.12-2.91,1.23-3.43s2.86-.23,4.31-.3,3.12-.79,3.34-2.23c.33-2.12-2.56-3.21-3.49-5.14-.89-1.85,.22-4.05,1.62-5.55s3.15-2.79,3.9-4.7c-2.34,.15-4.2-2.85-3.03-4.88l3-.03,.46-2.72c.57-3.4,2.36-7.05,.66-10.06-.51-.9-1.17-1.72-1.63-2.65-.44-.89-.67-1.87-.89-2.84-.54-2.3-1.09-4.66-.74-7s1.79-4.67,4.05-5.34c1.74-.52,3.61,0,5.42-.1,2.7-.16,5.26-1.84,6.48-4.25-2.7-3.85-6.37-7.03-10.57-9.14-.45-.23-.94-.48-1.12-.95-.34-.89,.67-1.7,1.57-2.03,3.47-1.28,7.68-.92,10.44-3.38,2.68-2.4,2.86-6.45,3.05-10.04,.2-3.82,.66-7.72,2.38-11.13s4.92-6.29,8.72-6.7c-2.94,2.3-6.23,5.75-4.81,9.2,.58,1.41,1.87,2.44,2.39,3.87,.59,1.61,.1,3.42,.51,5.08s2.71,3.03,3.75,1.67c.51,2.09,.15,4.38-.97,6.22l8-.78-1.24,8.22c-.12,.81-.24,1.68,.12,2.43,.48,1,1.62,1.43,2.62,1.92,1.44,.7,2.74,1.67,3.82,2.85,1.17,1.27,2.11,2.97,1.76,4.66s-2.55,2.94-3.91,1.86c-.36,2.4,2.24,4.14,4.55,4.89s5.05,1.46,5.98,3.7c1.04,2.49-1.07,5.39-3.65,6.2s-5.36,.14-7.98-.52c.33,3.9,1.88,8.07,5.33,9.92s8.81-.23,8.88-4.15c.03-1.75-.92-3.35-1.36-5.05-1.19-4.67,1.53-10.07-.92-14.22-.88-1.5-2.39-2.7-2.69-4.41-.19-1.05,.12-2.14-.1-3.19-.47-2.28-3.05-3.29-4.91-4.68-5.02-3.75-5.26-11.05-5.03-17.31l6.35-.59c-.4-5.36-.95-10.71-1.65-16.04,3.5,1.91,7.25,3.37,11.11,4.35l3.53-7.08c-4.17-.91-5.47-7.51-1.94-9.92-3.06-.75-6.16-1.31-9.29-1.67-.19-1.56-.1-3.15,.26-4.68,4.03,.11,8.05,.66,11.96,1.63l-9.06-17.84c-1.35-2.66-2.53-6.33-.24-8.25,2.49-2.09,6.15,.26,8.49,2.51l2.85-5.43c2.7,4.04,8.7,6.61,12.43,3.49,2.22-1.86,2.76-5.43,1.18-7.86-1.9-2.92-6.35-4.4-6.41-7.88-.04-2.79,2.99-5.63,1.43-7.95-.91-1.35-2.91-1.49-4.01-2.69-.79-.86-.98-2.08-1.26-3.21-.55-2.23-1.57-4.34-2.98-6.16,2.51-.1,4.42,2.1,6.19,3.89s4.54,3.4,6.64,2.03l.71-8.24c.05-.54,.11-1.12,.47-1.52,.33-.36,.83-.49,1.3-.58,1.54-.27,3.14-.19,4.64,.25,3.01-2.06,4.97-5.61,4.97-9.25l-11.12,.56,4.13-13.58c-5.39-2.21-8.28-9.13-6.05-14.51,1.42-.92,3.26-1.18,4.88-.68-3.55-2.18-5.78-6.34-5.64-10.5l13.41,5.99c1.41-2.22,2.07-4.9,1.87-7.52-2.09-1.31-4.63-1.87-7.08-1.56-.22-3.43,3.53-6.48,6.84-5.56l-2.25-5.81c-.79-2.03-1.58-4.27-.85-6.32s3.8-3.22,5.13-1.49l5.24,5.8c1.14-4.47-.97-9.57-4.93-11.92,2.95-1.29,6.66-.55,8.89,1.77,2.36-4.87,2.42-10.81,.14-15.72l4.91,1.65c-1.65,5.66-.41,12.08,3.23,16.72l9.29-9.8c2.13,4.67-.09,10.85-4.71,13.09-2.1,1.02-4.7,1.4-6.09,3.27-1.39,1.88,.69,5.52,2.56,4.12l-2.84,3.04c2.09,2.53,3.18,5.88,2.96,9.16,2.71-5,8.18-8.39,13.87-8.59-2.57,6.79-3.36,14.23-2.28,21.41,4.89-1.88,9.47-4.55,13.5-7.89,1.78,2.66-1.95,5.43-3.59,8.18-1.9,3.19-.84,7.22-.35,10.9s-.24,8.32-3.73,9.58l4.82,6.99c2.76-1.5,6.03-2.04,9.13-1.49-4.14,9.89-5.1,21.09-2.7,31.55,4.3-.48,8.44-2.37,11.61-5.32,.71,5.23-.08,10.66-2.24,15.47l6.52-1.59c.67,3.93-1.32,8.17-4.76,10.17,3.85-.46,4.26,5.93,1.6,8.75-2.66,2.82-6.83,4.84-7.34,8.68l4.89,.3c0,2.82,.29,6.17,2.74,7.58,1.22,.7,2.73,.73,4.02,1.31,3.43,1.56,3.93,6.27,3.14,9.96s-2.34,7.51-1.17,11.1c7.37,1.63,14.99,2.09,22.51,1.35-9.31-8.33-17.74-17.65-25.08-27.76l8.5,2.53c8.95,2.66,20.45,4.56,26.05-2.91,3.57-4.76,2.56-12.32-2.14-15.98-3.32-2.59-8.2-3.54-10.05-7.31-.96-1.96-.87-4.34-1.93-6.24-2.48-4.44-10.34-5.08-10.67-10.16,1.06,1.06,3.05,.14,3.56-1.28s.01-2.97-.48-4.39l-4.52-13.14c3.77,.84,6.75,3.61,9.74,6.05s6.55,4.75,10.39,4.37,7.27-4.87,5.23-8.15l-9.38-1.53c1.74-1.53,3.17-3.42,4.16-5.52-3.16-1.82-6.68-3-10.29-3.46l5.13-7.01c-2.09,1.66-5.67,.75-6.7-1.72s.83-5.66,3.48-5.98c-.39-1.81-2.52-3.02-4.27-2.44l1.99-2.75c-4.01-8.4-6.79-17.39-8.22-26.58,4.6,2.02,7.91,6.16,12.2,8.79s10.89,3.09,13.48-1.22l-13.39-12.17c-2.17-.25-1.2-4.5,.87-3.78l-5.33-.26c2.43-3.19,2.32-8.06-.25-11.14,7.59,.43,14.93,4.2,19.7,10.11,3.38-2.93,5.26-7.5,4.93-11.95-4.15-1.02-8.14-2.71-11.77-4.98,2.35-1.77,5-3.17,7.79-4.11v-7.57l-7.18,3.25c.37-2.97-1.26-6.08-3.92-7.47-.98-.51-2.11-.84-2.79-1.7-1.15-1.47-.26-3.79,1.31-4.8s3.55-1.07,5.41-1.09c-1.16,4.23,6.2,6.33,8.97,2.93,2.77-3.4,1.76-8.45,.14-12.53s-3.76-8.35-2.8-12.63c-1.94,.32-3.97,.03-5.74-.82,1.67-2.13,3.99-3.76,6.57-4.61l-7.8-1.71c1.53-1.02,2.49-2.84,2.46-4.67l-3.61-1.69c-1.45-4.84-1.31-10.15,.41-14.9,.35,2.95,4.41,3.74,7.25,2.84s5.62-2.71,8.53-2.13c2.07,.41,3.69,1.95,5.42,3.15,5.34,3.72,12.66,4.38,18.58,1.69-3.42-1.8-3.87-7.37-.79-9.7l-9.37-2.53c.25-3.11-2.11-6.21-5.17-6.8,1.45,.46,3.15-2.29,4.38-3.19,1.46-5.27-.5-11.32-4.79-14.72-1.24-.98-2.66-1.77-3.63-3.02-1.76-2.26-1.61-5.4-1.59-8.27,.04-7.5-1.44-15.01-4.32-21.94,5.13,4.78,10.65,9.14,16.48,13.02,2.03,1.35,4.53,2.69,6.79,1.78,3.47-1.41,3.1-6.51,1.42-9.86s-4.1-7.04-2.71-10.52c4.56,.29,9.15,0,13.63-.9,1.6-1.32,.82-4.04-.73-5.41s-3.64-2.03-5.18-3.41c-4.69-4.2-2.06-11.86,.87-17.43-3.86,.5-6.29-4.53-5.41-8.32s3.64-6.85,5.06-10.47c1.42-3.62,.75-8.77-2.95-9.96-1.29-.41-2.7-.24-4.04-.42-6.02-.83-8.26-10.34-3.24-13.77l8.06,1.41c.44-2.55-1.97-5.19-4.55-4.98,.36-3.35-1.54-6.82-4.54-8.34l4.54-2c3.12,4.5,6.81,8.6,10.95,12.17,2.77-.39,5.12-2.81,5.43-5.59,3.62-3.28-.35-10.49-4.34-13.31s-8.51-8.08-5.31-11.77l4.72,1.21c1.38-5.89,.05-12.35-3.54-17.21-.77-1.04-1.68-2.14-1.61-3.44,.14-2.43,3.28-3.18,5.68-3.52s5.44-2.08,4.57-4.35c2.61,5.89,4.4,12.15,5.31,18.53,5.02-1.51,8.3-7.34,6.97-12.42-1.76-6.74-10.18-12.41-7.22-18.72,2.56,2.44,5.55,4.43,8.79,5.85-.63-8.36-.78-16.75-.46-25.13,2.07-1.38,5.32-.27,6.12,2.09l3.89-6.45,3.01,25.56c.11,.93,.23,1.89,.66,2.73,1.33,2.56,5.41,2.71,7.38,.59s1.87-5.6,.34-8.05c.19,10.53-2.7,21.1-8.23,30.07,2.95-1.13,5.64,3.2,4.22,6.02s-4.92,3.89-8.08,4.06c4.41,4,6.72,10.2,6.01,16.11,2.51-8.54,10.75-15.07,19.64-15.56-5.87,5.03-9.15,12.94-8.56,20.65,.21,2.7,3.06,6.1,4.87,4.08,.7,3.57-.19,7.42-2.4,10.31,1.29,.67,2.1,2.18,1.95,3.62,6.9-2.21,12.94-7,16.67-13.22-2.84,19.68-4.46,39.54-4.86,59.42,3.29-3.59,9.18-4.45,13.36-1.94l-6.99,19.49c-.38,1.06-.76,2.19-.48,3.28,.43,1.68,2.22,2.55,3.48,3.73,7.28,6.82-4.21,19.52-.1,28.61,4.62-4.25,11.58-5.78,17.56-3.85l4.83-4.18-10.59,30.42,7.66,2.72c2.59,2.09,.58,6.19-1.43,8.84s-3.62,7.07-.73,8.72c1.03,.59,2.28,.52,3.44,.76,4.45,.92,6.66,6.48,5.45,10.85-1.21,4.38-4.82,7.65-8.53,10.26-3.47,2.44-7.72,6.4-5.57,10.05,5.32-.82,12.53-.47,13.86,4.74,.39,1.52,.14,3.26,1.05,4.54,.83,1.16,2.33,1.56,3.57,2.27,3.85,2.23,4.79,7.6,3.46,11.85s-4.34,7.71-6.97,11.29c-.89,1.21-1.77,2.53-1.93,4.02-.16,1.47,.4,2.91,.96,4.29l5.38,13.4c-5.11,1.55-8.04,8.05-5.81,12.91-3.31-.08-6.56-1.63-8.71-4.15-.3,6.87,6.47,12.87,13.35,12.63s12.9-5.87,14.6-12.54c1.08-4.23,.68-8.85,2.49-12.82,1.66-3.64,5.03-6.41,6.13-10.25,1.1-3.84-2.6-9.13-6.05-7.11-3.36-4.4,.16-10.73,4.26-14.46,4.1-3.72,9.27-7.46,9.57-12.99,.37-6.7-6.62-14.09-2.21-19.15,2.57-2.95,7.4-2.48,10.55-4.81,3.07-2.27,3.74-6.55,3.78-10.37s-.23-7.9,1.73-11.17,7.3-4.75,9.52-1.64c-1.47,7.89-1.23,16.1,.71,23.88l7.22-11.3c4.5,5.47,1.95,13.75-1.75,19.79s-8.56,12.13-8.19,19.2c.07,1.41,.64,3.1,2.03,3.34,1.16,.21,2.17-.72,2.98-1.58l10.53-11.16c1.17-.13,3.03-.53,4.2-.66,2.7,7.21-1.88,14.92-6.26,21.24l7.45-1.28c-1.25,3.51-1.92,8.48,1.48,9.98,3.5,1.55,6.72-2.52,8.61-5.85,1.9-3.33,6.02-6.92,8.97-4.47-4.59,3.41-6.41,9.43-6.89,15.13s.07,11.49-1.06,17.09c-.56,2.78-1.54,5.52-1.54,8.36s1.27,5.94,3.9,7.01l9.71-3.01c1.13,4.9,.51,10.18-1.72,14.68,3.18,3.22,4.56,8.11,3.56,12.52-.33,1.45-.91,2.9-.72,4.38s1.54,2.96,2.98,2.58c-1.97,1.12-4.01,2.3-5.27,4.18s-1.49,4.66,.12,6.26c2.82,2.79,7.45-.3,9.92-3.41s6.32-6.76,9.75-4.77c-5.15,1.28-7.87,7.84-5.85,12.75s7.76,7.67,13.03,7.09c1.88,2,.65,5.54-1.68,6.98s-5.26,1.37-8,1.26c.15,3.99,5.27,6.83,8.74,4.85,.27,2.06-.96,3.98-2.14,5.68-5.21,7.53-10.42,15.07-15.62,22.6,5.31-3.46,12.32-.84,18.06,1.84l4.78,2.23,5.01,.47c-1.34,3.65-2.71,7.48-2.17,11.33,.19,1.38,.61,2.81,.15,4.12-.53,1.47-2.04,2.36-2.86,3.69-2.8,4.56,3.53,11.38-.01,15.38l5.86-6.32c.67,8.06-1.09,16.31-5,23.4l7.9-4.48c2.12,1.16,4.32,2.4,5.69,4.39s1.62,4.99-.12,6.68c-2.01,7.34-2.95,15.8-6.17,22.7-2.35,1.07-2.54,4.99-.3,6.29,1.26-2.05,2.05-4.36,3.25-6.45,1.89-3.29,4.74-5.94,6.82-9.11s3.36-7.34,1.68-10.75c3.5-1.35,6.85-3.13,9.93-5.27l-4.08-7.03c.77-1.78,3.42-1.72,5.09-.73s3.03,2.59,4.9,3.1c3.77,1.04,7.12-2.78,8.52-6.44-4.4,3.47-12.12,.36-12.88-5.2-3.43-.39-6.94-.12-10.26,.81,3.4-3.91,7.57-7.15,12.19-9.5-2.91-3.68-4.69-8.24-5.05-12.92,4.13-1.56,7.7-4.57,9.95-8.37-3.07-.87-5.19-4.27-4.62-7.41,2.58-.51,4.52-2.65,5.91-4.88,3.36-5.37,3.49-14.3-2.53-16.26l3.51-1.63c-2.27-.85-4.15-2.71-5.03-4.97,2.93-6.05,3.05-13.4,.31-19.54,8.14,.78,16.92,1.41,23.91-2.82-4.01-1.46-6.68-5.92-6.08-10.14-3.34-.97-6.22-3.4-7.73-6.53-.47-.98-.81-2.12-.41-3.13,.66-1.69,2.89-2.02,4.7-1.91,5.29,.32,10.49,2.15,14.81,5.22,.69-4.55,.04-9.29-1.86-13.48l3.63-2.13c-3.08-.71-5.84-3.37-5.88-6.52s3.41-6.08,6.35-4.9c-.37-10.53,1.33-21.12,4.96-31,2.97,3.06,6.18,5.87,9.6,8.42-3.31,3.27-6.74,6.74-8.03,11.21-1.29,4.47,.44,10.17,4.85,11.65,.29,3.07,1.24,6.08,2.75,8.76-.32-1.93-.07-3.96,.71-5.75,4.55,2.54,7.08,8.25,5.9,13.33,4.33-.38,8.55-1.83,12.21-4.17,1.8,2.84-.56,6.54-3.25,8.56s-6.04,3.73-7.08,6.93c-2.14,6.59,7.12,11.78,7.45,18.7,.12,2.47-.35,5.94,2.05,6.51,2.53,.6,5.32-3.36,7.15-1.52-.69,5.34-10.06,4.47-12.27,9.38-1.39,3.09,.8,7.18-1.24,9.88-1.14,1.51-3.53,3.04-2.44,4.58,5.24-.49,10.65,2.09,13.58,6.47-6.11-2.57-14.02,2.6-14.11,9.22,4.01-3.37,10.1-3.99,14.71-1.51-1.46-1.55-.53-4.29,1.22-5.51s3.99-1.42,6.08-1.82c5.85-1.12,11.31-4.16,15.34-8.55,1.13,2.82,.15,6.34-2.29,8.16l5.03,3.01c-5.74,5.85-11.36,11.81-16.86,17.89-2.17,2.39-4.47,5.33-3.82,8.5,3.44-.7,6.99-.89,10.49-.54-1.04,3.91-3.79,7.33-7.38,9.18-2.5,1.29-5.82,2.38-6.21,5.16-.45,3.18,3.41,5.15,6.59,5.54s7,.58,8.63,3.34c1.43,2.43,.26,5.57-1.43,7.82s-3.92,4.17-4.94,6.8c-2.15,5.54,1.55,12.95-2.6,17.21l16.66-2.97-12.93,25.25c5.29-.85,10.79-.38,15.86,1.37l2.56,20.04c.25,1.94,.28,4.35-1.4,5.34-1.36,.8-3.1,.19-4.66,.48-4.05,.75-4.41,6.37-3.77,10.43,3.4,1.03,7.22,.56,10.27-1.26,.52,4.79,.81,10.3-2.59,13.7-.85,.85-1.93,1.58-2.3,2.72-1.23,3.83,6.42,7.26,3.99,10.47l1.22,134.71H14.69Z"/></svg>